<svg xmlns="http://www.w3.org/2000/svg" viewBox="0 0 75 75" width="75" height="75">
<path d="M 29 51 L 28 52 L 26 52 L 26 54 L 27 54 L 28 53 L 34 53 L 35 54 L 39 54 L 40 53 L 46 53 L 47 54 L 48 54 L 49 53 L 48 52 L 46 52 L 45 51 L 41 51 L 40 52 L 38 52 L 37 53 L 36 52 L 34 52 L 33 51 Z" fill="black"/>
<path d="M 17 46 L 17 47 L 18 48 L 21 48 L 22 49 L 27 49 L 28 48 L 34 48 L 35 49 L 40 49 L 41 48 L 46 48 L 47 49 L 52 49 L 53 48 L 56 48 L 57 47 L 57 46 L 54 46 L 53 47 L 51 47 L 50 48 L 49 48 L 48 47 L 46 47 L 45 46 L 41 46 L 40 47 L 38 47 L 37 48 L 36 47 L 34 47 L 33 46 L 29 46 L 28 47 L 22 47 L 21 46 Z" fill="black"/>
<path d="M 40 22 L 40 23 L 41 24 L 39 26 L 34 26 L 34 27 L 33 28 L 31 28 L 30 29 L 30 30 L 29 31 L 29 32 L 27 34 L 23 34 L 22 33 L 15 33 L 14 32 L 15 33 L 15 34 L 17 36 L 17 37 L 19 39 L 19 40 L 21 42 L 21 43 L 22 44 L 27 44 L 28 43 L 34 43 L 35 44 L 39 44 L 40 43 L 46 43 L 47 44 L 52 44 L 53 43 L 55 43 L 56 42 L 56 40 L 54 38 L 54 37 L 52 37 L 51 36 L 48 36 L 47 35 L 47 28 L 46 28 L 45 27 L 45 26 L 44 26 L 42 24 L 42 22 Z" fill="black"/>
</svg>